<?xml version="1.0" encoding="UTF-8"?>
<svg id="katman_1" data-name="katman 1" xmlns="http://www.w3.org/2000/svg" version="1.1" viewBox="0 0 200 100">
  <defs>
    <style>
      .cls-1 {
        fill: #3dc2ec;
        fill-rule: evenodd;
        stroke-width: 0px;
      }

      .cls-2 {
        font-size: 32.7px;
        letter-spacing: 0em;
      }

      .cls-2, .cls-3 {
        fill: #333;
        font-family: Roboto-Regular, Roboto;
      }

      .cls-3 {
        font-size: 282.7px;
        letter-spacing: 0em;
      }
    </style>
  </defs>
  <g>
    <path class="cls-1" d="M246.6,370.8v102.7c0,1.7,1.4,3.1,3.1,3.1h108.5c1.7,0,3.1-1.4,3.1-3.1v-102.7c0-1.7-1.4-3.1-3.1-3.1h-1.6c-1.7,0-3.1-1.4-3.1-3.1v-16.1c0-3.9-1.6-7.4-4.1-9.9-2.5-2.5-6.1-4.1-9.9-4.1h-71.1c-3.8,0-7.4,1.6-9.9,4.1h0c-2.5,2.5-4.1,6-4.1,9.9v16.1c0,1.7-1.4,3.1-3.1,3.1h-1.6c-1.7,0-3.1,1.4-3.1,3.1ZM223.4,475.2v-104.3c0-1.7-1.4-3.1-3.1-3.1h-1.6c-1.7,0-3.1-1.4-3.1-3.1v-16.1c0-14.4,5.9-27.6,15.5-37.1h0c9.5-9.6,22.7-15.5,37.2-15.5h71.1c14.4,0,27.6,5.9,37.1,15.4h0c9.5,9.6,15.4,22.7,15.4,37.2v16.1c0,1.7-1.4,3.1-3.1,3.1h-1.6c-1.7,0-3.1,1.4-3.1,3.1v104.3c0,1.4,1,2.6,2.4,3,26.1,6.1,45.7,29.6,45.7,57.5v138.9c0,32.5-26.6,59.1-59.1,59.1h-138.9c-32.5,0-59.1-26.6-59.1-59.1v-138.9c0-27.9,19.6-51.4,45.7-57.5,1.4-.3,2.4-1.5,2.4-3ZM321.8,564l-41.7-24.1c-6.2-3.6-13.4-3.6-19.7,0-6.2,3.6-9.8,9.8-9.8,17v96.3c0,7.2,3.6,13.4,9.8,17,6.3,3.6,13.4,3.6,19.7,0l41.7-24.1,41.7-24.1c6.2-3.6,9.8-9.8,9.8-17s-3.6-13.4-9.8-17l-41.7-24.1ZM372.8,744.6c10.9,0,19.7,8.8,19.7,19.7s-8.8,19.7-19.7,19.7-19.7-8.8-19.7-19.7,8.8-19.7,19.7-19.7ZM235,744.6c10.9,0,19.7,8.8,19.7,19.7s-8.8,19.7-19.7,19.7-19.7-8.8-19.7-19.7,8.8-19.7,19.7-19.7Z"/>
    <text class="cls-3" transform="translate(463.1 663.3)"><tspan x="0" y="0">SocialTivity</tspan></text>
  </g>
  <g>
    <path class="cls-1" d="M9.9,30.4v11.9c0,.2.2.4.4.4h12.5c.2,0,.4-.2.4-.4v-11.9c0-.2-.2-.4-.4-.4h-.2c-.2,0-.4-.2-.4-.4v-1.9c0-.4-.2-.9-.5-1.1-.3-.3-.7-.5-1.1-.5h-8.2c-.4,0-.8.2-1.1.5h0c-.3.3-.5.7-.5,1.1v1.9c0,.2-.2.4-.4.4h-.2c-.2,0-.4.2-.4.4ZM7.2,42.5v-12.1c0-.2-.2-.4-.4-.4h-.2c-.2,0-.4-.2-.4-.4v-1.9c0-1.7.7-3.2,1.8-4.3h0c1.1-1.1,2.6-1.8,4.3-1.8h8.2c1.7,0,3.2.7,4.3,1.8h0c1.1,1.1,1.8,2.6,1.8,4.3v1.9c0,.2-.2.4-.4.4h-.2c-.2,0-.4.2-.4.4v12.1c0,.2.1.3.3.3,3,.7,5.3,3.4,5.3,6.6v16c0,3.8-3.1,6.8-6.8,6.8H8.5c-3.8,0-6.8-3.1-6.8-6.8v-16c0-3.2,2.3-5.9,5.3-6.6.2,0,.3-.2.3-.3ZM18.5,52.8l-4.8-2.8c-.7-.4-1.5-.4-2.3,0-.7.4-1.1,1.1-1.1,2v11.1c0,.8.4,1.5,1.1,2,.7.4,1.5.4,2.3,0l4.8-2.8,4.8-2.8c.7-.4,1.1-1.1,1.1-2s-.4-1.5-1.1-2l-4.8-2.8ZM24.4,73.6c1.3,0,2.3,1,2.3,2.3s-1,2.3-2.3,2.3-2.3-1-2.3-2.3,1-2.3,2.3-2.3ZM8.5,73.6c1.3,0,2.3,1,2.3,2.3s-1,2.3-2.3,2.3-2.3-1-2.3-2.3,1-2.3,2.3-2.3Z"/>
    <text class="cls-2" transform="translate(34.9 64.2)"><tspan x="0" y="0">SocialTivity</tspan></text>
  </g>
</svg>